Coordinates
version=1
nRows=11
nColumns=40
inDegrees=yes

Units are S.I. units (second, meters, Newtons, ...)
If the header above contains a line with 'inDegrees', this indicates whether rotational values are in degrees (yes) or radians (no).

endheader
time	pelvis_tilt	pelvis_list	pelvis_rotation	pelvis_tx	pelvis_ty	pelvis_tz	hip_flexion_r	hip_adduction_r	hip_rotation_r	knee_angle_r	knee_angle_r_beta	ankle_angle_r	subtalar_angle_r	mtp_angle_r	hip_flexion_l	hip_adduction_l	hip_rotation_l	knee_angle_l	knee_angle_l_beta	ankle_angle_l	subtalar_angle_l	mtp_angle_l	lumbar_extension	lumbar_bending	lumbar_rotation	arm_flex_r	arm_add_r	arm_rot_r	elbow_flex_r	pro_sup_r	wrist_flex_r	wrist_dev_r	arm_flex_l	arm_add_l	arm_rot_l	elbow_flex_l	pro_sup_l	wrist_flex_l	wrist_dev_l
      0.36000000	     18.40417006	      2.95538656	     -4.32439536	     -0.72045278	      0.94591902	      0.21358677	    -29.54862849	      0.62383363	      1.68002209	      3.61148039	      0.06303222	     13.38765757	      0.00000000	      0.00000000	      8.61405596	     -1.18364248	    -16.09103524	     34.00354456	      0.59347381	     11.46611008	      0.00000000	      0.00000000	    -29.85693062	     -9.08086766	     10.93795672	      2.68985367	     -2.85895618	     -8.32036737	     43.16854624	     89.34930057	    -12.44129733	      2.18400275	     -0.79789286	     -6.73566015	     20.90936957	     14.18610640	     88.35186309	     -8.47057445	      0.59355637
      0.37000000	     17.63433572	      2.67662009	     -4.39177067	     -0.70413734	      0.94102513	      0.21341069	    -29.66471510	      0.86358395	      1.71033071	      3.97567230	      0.06938857	     14.63454923	      0.00000000	      0.00000000	     10.36329823	     -1.23500895	    -15.57293725	     30.83426570	      0.53815946	     11.48255521	      0.00000000	      0.00000000	    -29.04249667	     -8.90367597	     11.23151675	      3.47204072	     -3.13867970	     -7.61525995	     44.18690260	     89.34407905	    -12.21785579	      2.07250525	     -1.19256054	     -6.77541413	     21.02338477	     13.49629010	     88.31427790	     -8.44105746	      0.74506316
      0.38000000	     16.90274910	      2.49034451	     -4.53961701	     -0.68766505	      0.93610052	      0.21321867	    -29.73051522	      0.95477455	      1.70460895	      4.55054413	      0.07942198	     15.93530712	      0.00000000	      0.00000000	     11.92838370	     -1.17138459	    -14.95985685	     27.68346101	      0.48316754	     11.22662334	      0.00000000	      0.00000000	    -28.23035973	     -8.84341872	     11.56417823	      4.21930769	     -3.41995268	     -6.93019809	     45.08968656	     89.33989384	    -12.01026977	      1.99290649	     -1.55494647	     -6.80768751	     21.17829547	     12.81180589	     88.29781431	     -8.42417108	      0.87280146
      0.39000000	     16.23471580	      2.41521049	     -4.77483915	     -0.67095380	      0.93129780	      0.21307371	    -29.77168427	      0.87789199	      1.61109173	      5.34092282	      0.09321669	     17.22648674	      0.00000000	      0.00000000	     13.28998834	     -1.00547399	    -14.33773298	     24.68441232	      0.43082427	     10.70457983	      0.00000000	      0.00000000	    -27.46234033	     -8.92480713	     11.93254526	      4.89898495	     -3.67676124	     -6.28956263	     45.91356090	     89.34243200	    -11.85441717	      1.93818031	     -1.89044712	     -6.83979851	     21.41646634	     12.14082766	     88.26220315	     -8.47317079	      0.95669590
      0.40000000	     15.52203081	      2.08896031	     -4.97657563	     -0.65392764	      0.92647636	      0.21286911	    -29.79695743	      1.05192825	      1.56633118	      6.12703421	      0.10693692	     18.22381826	      0.00000000	      0.00000000	     14.64986377	     -1.16454861	    -13.67254438	     22.18730255	      0.38724148	     10.31038397	      0.00000000	      0.00000000	    -26.61595108	     -8.72871965	     12.43318589	      5.44859616	     -3.97233223	     -5.65942016	     46.69771961	     89.35553725	    -11.73160875	      1.84637890	     -2.23924048	     -6.82635830	     21.43585470	     11.56366159	     88.17863418	     -8.54405114	      1.06344751
      0.41000000	     15.07539479	      2.25618032	     -5.45078597	     -0.63670525	      0.92234099	      0.21280129	    -29.81502294	      0.55196160	      1.55531891	      7.53246110	      0.13146625	     19.21589793	      0.00000000	      0.00000000	     15.49616910	     -0.77958322	    -12.79577968	     19.76795260	      0.34501586	      9.52354076	      0.00000000	      0.00000000	    -25.98803561	     -9.13798526	     12.90006085	      5.98658072	     -4.18935903	     -5.07051932	     47.31977257	     89.35054771	    -11.83111877	      1.84914785	     -2.51711872	     -6.82640076	     21.78229966	     10.87496634	     88.16671932	     -8.95070731	      1.08725646
      0.42000000	     14.53052615	      2.08273752	     -5.79452902	     -0.61903485	      0.91824890	      0.21255679	    -29.82425822	      0.44010716	      1.60911836	      8.82178584	      0.15396921	     19.77590209	      0.00000000	      0.00000000	     16.45750257	     -0.82220701	    -11.93848027	     18.12493204	      0.31633974	      9.17026605	      0.00000000	      0.00000000	    -25.22616377	     -9.13139472	     13.46439936	      6.33695908	     -4.46305228	     -4.48833838	     47.91274121	     89.35895771	    -11.77974462	      1.77657291	     -2.81615772	     -6.77460784	     21.73776358	     10.28995106	     88.12958362	     -9.10435354	      1.18628218
      0.43000000	     14.17989030	      2.14888792	     -6.21238029	     -0.60117452	      0.91482943	      0.21240052	    -29.83071770	      0.02145461	      1.71526584	     10.57308071	      0.18453507	     20.01925848	      0.00000000	      0.00000000	     17.15028465	     -0.64040417	    -11.06880079	     17.05283145	      0.29762806	      8.78531809	      0.00000000	      0.00000000	    -24.65474352	     -9.41425301	     13.96280997	      6.63888827	     -4.64735051	     -3.98465445	     48.35849057	     89.38311949	    -11.79212258	      1.73753675	     -3.06833180	     -6.76143620	     21.73738243	      9.75329827	     88.09406709	     -9.32045307	      1.27959735
      0.44000000	     13.93378813	      2.35585500	     -6.69855985	     -0.58298097	      0.91193644	      0.21221871	    -29.83367229	     -0.60417133	      1.77260463	     12.54911086	      0.21902330	     19.94158202	      0.00000000	      0.00000000	     17.67660196	     -0.35269477	    -10.51755500	     16.56836070	      0.28917245	      8.45883734	      0.00000000	      0.00000000	    -24.17821785	     -9.84275405	     14.37338404	      6.85681344	     -4.74539350	     -3.56558121	     48.75155233	     89.38203975	    -11.86336780	      1.70830729	     -3.34994367	     -6.73939457	     21.76510267	      9.30317254	     88.05108871	     -9.59599583	      1.35857407
      0.45000000	     13.90043191	      2.92061856	     -7.50290213	     -0.56434981	      0.90978206	      0.21239671	    -29.83659992	     -1.76716171	      1.88104419	     14.91824134	      0.26037243	     19.80582985	      0.00000000	      0.00000000	     17.78747784	      0.22457428	    -10.87600007	     16.32088937	      0.28485326	      7.92428860	      0.00000000	      0.00000000	    -23.84019142	    -10.76484155	     14.87849352	      6.96397678	     -4.78854577	     -3.06726844	     49.08703171	     89.39226164	    -12.27581663	      1.76318185	     -3.66681599	     -6.75913240	     21.91731086	      8.98255854	     87.95770754	    -10.46489036	      1.38419529
      0.46000000	     13.93500141	      3.43441032	     -8.18301943	     -0.54538817	      0.90812555	      0.21234564	    -29.83285103	     -2.84865054	      2.04367333	     17.42766583	      0.30417015	     18.99096185	      0.00000000	      0.00000000	     17.87390739	      0.77949812	    -11.01800154	     16.83365770	      0.29380275	      7.71005312	      0.00000000	      0.00000000	    -23.55400632	    -11.59558291	     15.31426220	      6.92980020	     -4.79221370	     -2.66866541	     49.32672727	     89.40293980	    -12.69498274	      1.76973778	     -3.92416365	     -6.74018374	     21.93444046	      8.65463837	     87.89838296	    -11.26924424	      1.42200814
